<svg xmlns="http://www.w3.org/2000/svg" viewBox="0 0 1100 400" width="100%" height="100%">
  <g>
  <defs>
    <style>
      .dark { fill: #0f172a; }
      .dark-stroke { stroke: #0f172a; }
      .blue { fill: #0284c7; }
      .blue-stroke { stroke: #0284c7; }
      .bg-white { fill: #ffffff; }
    </style>
  </defs>

  <!-- Gear (Right) -->
  <g transform="translate(260, 200)">
    <g class="blue-stroke" stroke-width="22" stroke-linecap="round">
      <line x1="0" y1="-65" x2="0" y2="-78" />
      <line x1="0" y1="65" x2="0" y2="78" />
      <line x1="-65" y1="0" x2="-78" y2="0" />
      <line x1="65" y1="0" x2="78" y2="0" />
      <line x1="-46" y1="-46" x2="-55" y2="-55" />
      <line x1="46" y1="46" x2="55" y2="55" />
      <line x1="-46" y1="46" x2="-55" y2="55" />
      <line x1="46" y1="-46" x2="55" y2="-55" />
    </g>
    <circle cx="0" cy="0" r="65" fill="none" class="blue-stroke" stroke-width="22"/>
  </g>

  <!-- Document (Center) -->
  <rect x="145" y="60" width="130" height="280" rx="18" class="bg-white dark-stroke" stroke-width="18" stroke-linejoin="round"/>
  
  <!-- Document Content: Code Lines -->
  <g class="blue-stroke" stroke-width="12" stroke-linecap="round">
    <!-- Top block -->
    <line x1="175" y1="110" x2="195" y2="110" />
    <line x1="215" y1="110" x2="245" y2="110" class="dark-stroke" />
    <line x1="175" y1="145" x2="235" y2="145" />
    <line x1="175" y1="180" x2="205" y2="180" class="dark-stroke" />
    <!-- Bottom block -->
    <line x1="175" y1="290" x2="205" y2="290" />
    <line x1="225" y1="290" x2="245" y2="290" class="dark-stroke" />
  </g>
  <!-- Checkmark -->
  <path d="M 175 235 L 205 265 L 255 195" fill="none" class="dark-stroke" stroke-width="20" stroke-linecap="round" stroke-linejoin="round"/>

  <!-- Left Side: Chat Bubbles and converging paths -->
  <!-- Top Bubble -->
  <g transform="translate(60, 80)">
    <path d="M 10 0 h 30 a 10 10 0 0 1 10 10 v 20 a 10 10 0 0 1 -10 10 h -10 l -10 15 v -15 h -20 a 10 10 0 0 1 -10 -10 v -20 a 10 10 0 0 1 10 -10 z" class="blue"/>
    <circle cx="20" cy="20" r="3.5" class="bg-white"/>
    <circle cx="30" cy="20" r="3.5" class="bg-white"/>
    <circle cx="40" cy="20" r="3.5" class="bg-white"/>
  </g>
  
  <!-- Bottom Bubble -->
  <g transform="translate(70, 240)">
    <path d="M 10 0 h 30 a 10 10 0 0 1 10 10 v 20 a 10 10 0 0 1 -10 10 h -20 l -10 15 v -15 h -10 a 10 10 0 0 1 -10 -10 v -20 a 10 10 0 0 1 10 -10 z" class="dark"/>
    <circle cx="20" cy="20" r="3.5" class="bg-white"/>
    <circle cx="30" cy="20" r="3.5" class="bg-white"/>
    <circle cx="40" cy="20" r="3.5" class="bg-white"/>
  </g>

  <!-- Braces -->
  <text x="100" y="210" font-family="'Courier New', Courier, monospace" font-size="64" font-weight="900" class="dark" text-anchor="middle">{}</text>

  <!-- Converging arrows/lines -->
  <g fill="none" class="blue-stroke" stroke-width="12" stroke-linecap="round" stroke-linejoin="round">
    <!-- from top bubble -->
    <path d="M 120 110 C 145 110, 130 160, 155 160" />
    <path d="M 140 145 L 160 160 L 140 175" />
    
    <!-- from braces -->
    <line x1="125" y1="195" x2="155" y2="195" />
    <path d="M 140 180 L 160 195 L 140 210" />

    <!-- from bottom bubble -->
    <path d="M 130 260 C 150 260, 135 230, 155 230" />
    <path d="M 140 215 L 160 230 L 140 245" />
  </g>
  
  <!-- Accent Dots and Lines -->
  <circle cx="40" cy="195" r="7" class="blue"/>
  <line x1="40" y1="195" x2="65" y2="195" class="blue-stroke" stroke-width="8" stroke-linecap="round"/>

  <circle cx="120" cy="65" r="5" class="dark"/>
  <circle cx="130" cy="290" r="6" class="blue"/>
  <circle cx="60" cy="310" r="5" class="dark"/>
  <circle cx="40" cy="130" r="4" class="dark"/>
</g>
  <text x="390" y="245" font-family="system-ui, -apple-system, 'Segoe UI', Roboto, Helvetica, Arial, sans-serif" font-size="160" font-weight="800" fill="#0f172a" letter-spacing="-3">skillify</text>
</svg>